Coordinates
version=1
nRows=16
nColumns=40
inDegrees=yes

Units are S.I. units (second, meters, Newtons, ...)
Angles are in degrees.

endheader
time	pelvis_tilt	pelvis_list	pelvis_rotation	pelvis_tx	pelvis_ty	pelvis_tz	hip_flexion_r	hip_adduction_r	hip_rotation_r	knee_angle_r	knee_angle_r_beta	ankle_angle_r	subtalar_angle_r	mtp_angle_r	hip_flexion_l	hip_adduction_l	hip_rotation_l	knee_angle_l	knee_angle_l_beta	ankle_angle_l	subtalar_angle_l	mtp_angle_l	lumbar_extension	lumbar_bending	lumbar_rotation	arm_flex_r	arm_add_r	arm_rot_r	elbow_flex_r	pro_sup_r	wrist_flex_r	wrist_dev_r	arm_flex_l	arm_add_l	arm_rot_l	elbow_flex_l	pro_sup_l	wrist_flex_l	wrist_dev_l
     45.16000000	     -8.27780770	     -4.81057788	      2.59552898	      1.03109064	      0.92528229	      0.46934285	     17.85224226	      2.44762287	    -15.08701880	     18.95914576	     18.95914576	     11.22951548	     -2.75090254	      1.17578289	     32.48133936	     -9.82975506	      6.30997478	     70.54149512	     70.54149512	      3.29548430	    -16.92957327	      8.14098917	    -11.93657254	      2.52809585	      0.35437073	     25.24665048	    -26.74481493	     10.67150237	     86.89367347	     45.26012171	      0.00000000	      0.00000000	     -0.37977743	     -8.93134015	     -6.47824872	     36.17183149	     45.32807489	      0.00000000	      0.00000000
     45.17214286	     -8.33064852	     -4.71788242	      2.69294660	      1.03025663	      0.92579666	      0.47020355	     17.16254238	      2.51795659	    -15.01295566	     18.47078782	     18.47078782	     11.53644383	     -2.68656969	      1.22042149	     34.19356562	     -9.62881497	      6.24417034	     69.59252433	     69.59252433	      3.94949353	    -17.79963033	      8.27550713	    -11.95489932	      2.36364243	      0.45576143	     27.07179912	    -26.41475516	     10.48330213	     88.45983139	     45.22258148	      0.00000000	      0.00000000	     -1.26422573	     -8.55488942	     -6.45653528	     35.64774583	     45.32432426	      0.00000000	      0.00000000
     45.18428571	     -8.35764813	     -4.64612857	      2.79633898	      1.02947015	      0.92628892	      0.47102835	     16.41718241	      2.62512104	    -14.90224770	     17.91492062	     17.91492062	     11.82469938	     -2.66136397	      1.30299339	     35.75100126	     -9.51240821	      6.07956817	     68.39478727	     68.39478727	      4.76369193	    -18.32138821	      8.86051527	    -12.01189978	      2.25238086	      0.55633575	     28.89412474	    -26.13458670	     10.41781928	     90.14660888	     45.17781485	      0.00000000	      0.00000000	     -2.17372249	     -8.15096058	     -6.49916513	     35.16372267	     45.32923054	      0.00000000	      0.00000000
     45.19642857	     -8.36147048	     -4.57787293	      2.92277105	      1.02873327	      0.92675385	      0.47177571	     15.64077459	      2.73292166	    -14.80194797	     17.33798541	     17.33798541	     12.07649670	     -2.66585435	      1.40696075	     37.12761022	     -9.36642326	      5.92807734	     66.90490582	     66.90490582	      5.73828746	    -18.65276140	      9.91178985	    -12.09322665	      2.13867126	      0.66927152	     30.70311756	    -25.80774053	     10.38578895	     91.80460369	     45.13338780	      0.00000000	      0.00000000	     -2.96310413	     -7.82062814	     -6.60382568	     34.73240947	     45.34391830	      0.00000000	      0.00000000
     45.20857143	     -8.45145065	     -4.45298956	      3.05214054	      1.02795716	      0.92700755	      0.47228927	     15.03005568	      2.73532078	    -14.70856598	     16.90026350	     16.90026350	     12.39010490	     -2.68554155	      1.51665255	     38.51928715	     -9.03186960	      5.83016317	     65.26570507	     65.26570507	      7.62918526	    -18.75629683	     13.85362010	    -12.08076998	      1.98663918	      0.91688338	     32.31917336	    -25.89947646	     10.75546701	     93.52990106	     45.07423769	      0.00000000	      0.00000000	     -3.62860052	     -7.30021500	     -7.41128468	     34.30723540	     45.48824124	      0.00000000	      0.00000000
     45.22071429	     -8.45366126	     -4.33071294	      3.22033748	      1.02735135	      0.92730073	      0.47268996	     14.26521925	      2.74801052	    -14.63243184	     16.35840658	     16.35840658	     12.68954217	     -2.64748418	      1.55275450	     39.48896690	     -8.80266098	      5.58457772	     62.98471642	     62.98471642	      8.27745235	    -18.87460220	     14.32887593	    -12.12360349	      1.84532706	      1.00168884	     33.90994052	    -25.35021718	     10.41190842	     94.67652959	     45.05634882	      0.00000000	      0.00000000	     -4.29924813	     -6.99138095	     -7.47553952	     33.88319354	     45.49474278	      0.00000000	      0.00000000
     45.23285714	     -8.58694374	     -4.16511890	      3.38906218	      1.02673528	      0.92729951	      0.47283051	     13.69321433	      2.66997844	    -14.54650211	     15.92599124	     15.92599124	     13.00657625	     -2.65484899	      1.54073022	     40.39464526	     -8.44438124	      5.35703217	     60.31216607	     60.31216607	      8.83364294	    -18.94237563	     14.72717417	    -11.98326909	      1.65869781	      1.24813635	     35.38760384	    -25.07694645	     10.12396813	     95.61693524	     45.04256500	      0.00000000	      0.00000000	     -4.82108421	     -6.67021397	     -7.50179682	     33.59565403	     45.49416777	      0.00000000	      0.00000000
     45.24500000	     -8.56882432	     -4.02875344	      3.62256056	      1.02628786	      0.92741602	      0.47279783	     12.93656687	      2.62560434	    -14.56048428	     15.46297273	     15.46297273	     13.29171624	     -2.67844509	      1.53988886	     40.91025628	     -8.00899051	      5.27538198	     57.23818580	     57.23818580	      9.41963500	    -18.92636355	     15.24512368	    -12.07878358	      1.51724738	      1.21448905	     36.66639957	    -24.36483694	      9.97732116	     96.99724091	     45.01007829	      0.00000000	      0.00000000	     -5.37875975	     -6.46544347	     -7.60564968	     33.18578177	     45.50580344	      0.00000000	      0.00000000
     45.25714286	     -8.62474619	     -3.86620939	      3.86676477	      1.02588639	      0.92727513	      0.47243236	     12.27002998	      2.51382345	    -14.57667789	     15.03927683	     15.03927683	     13.61734657	     -2.64087600	      1.47078143	     41.27281297	     -7.42578124	      5.33888714	     53.80560132	     53.80560132	      9.95755585	    -18.79628893	     15.61706241	    -12.05582317	      1.43134128	      1.13182507	     37.85935015	    -23.67911685	      9.81084213	     98.48854090	     44.97498933	      0.00000000	      0.00000000	     -5.77807709	     -6.14089464	     -7.81053332	     32.79668868	     45.53634315	      0.00000000	      0.00000000
     45.26928571	     -8.72058280	     -3.66644288	      4.07655479	      1.02553788	      0.92695292	      0.47195618	     11.72407711	      2.33154451	    -14.58162796	     14.77818323	     14.77818323	     13.96228370	     -2.67148578	      1.36405732	     41.44551060	     -6.80783013	      5.41464808	     50.04656163	     50.04656163	     10.31627778	    -18.50836113	     15.79986249	    -11.95090909	      1.25837845	      1.30105510	     38.88830226	    -23.20631482	      9.66373500	     99.50029531	     44.95332301	      0.00000000	      0.00000000	     -6.08265093	     -5.95011574	     -7.94145947	     32.53848869	     45.55461644	      0.00000000	      0.00000000
     45.28142857	     -8.77883417	     -3.53047038	      4.31290618	      1.02535568	      0.92643836	      0.47132508	     11.12647445	      2.19361114	    -14.70285019	     14.52590961	     14.52590961	     14.34623149	     -2.50188239	      1.14530397	     41.36091454	     -6.19571588	      5.69028123	     46.03222458	     46.03222458	     10.39207372	    -18.07833339	     15.09650833	    -11.93687256	      1.19384148	      1.28051899	     39.75382461	    -22.41909734	      9.44439294	    101.11446075	     44.91649039	      0.00000000	      0.00000000	     -6.29134488	     -5.68871352	     -8.37031894	     32.09885732	     45.62378663	      0.00000000	      0.00000000
     45.29357143	     -8.78810746	     -3.38229667	      4.49488826	      1.02544997	      0.92583252	      0.47061732	     10.51783925	      2.03472075	    -14.80654585	     14.39844213	     14.39844213	     14.76211601	     -2.40575910	      0.80362753	     40.91415452	     -5.69463329	      5.82204484	     41.64326702	     41.64326702	      9.67514222	    -17.45274439	     12.27897594	    -11.88036866	      1.11134561	      1.60143910	     40.28314219	    -21.92644350	      8.99593239	    102.50758325	     44.89904621	      0.00000000	      0.00000000	     -6.18856710	     -5.35717705	     -9.57155033	     31.50170942	     45.82353984	      0.00000000	      0.00000000
     45.30571429	     -8.85688553	     -3.25035553	      4.65874451	      1.02561007	      0.92497698	      0.46981823	     10.01617459	      1.89724892	    -14.76286654	     14.34979179	     14.34979179	     15.20995792	     -2.55585685	      0.64014922	     40.53697473	     -5.19888716	      6.03061032	     37.57202994	     37.57202994	     10.16659851	    -16.16071441	     12.51975511	    -11.73826084	      1.04459718	      1.77850468	     40.99429837	    -21.31687878	      9.07605087	    103.14270363	     44.88075039	      0.00000000	      0.00000000	     -6.26288874	     -5.18666980	     -9.58838790	     31.42348184	     45.82623010	      0.00000000	      0.00000000
     45.31785714	     -8.80570248	     -3.17588372	      4.77799097	      1.02602363	      0.92410929	      0.46902510	      9.40869640	      1.81748889	    -14.75148769	     14.37663680	     14.37663680	     15.68118275	     -2.59040160	      0.44222259	     39.91875563	     -4.85613676	      6.13335000	     33.60334020	     33.60334020	     10.54297967	    -14.64970219	     12.59680422	    -11.74652398	      1.06357455	      1.80389761	     41.57556416	    -20.42052412	      9.20806308	    104.00385075	     44.85389329	      0.00000000	      0.00000000	     -6.41494642	     -5.11847168	     -9.64756284	     31.28532274	     45.83475114	      0.00000000	      0.00000000
     45.33000000	     -8.80132283	     -3.14769169	      4.86771782	      1.02666073	      0.92297968	      0.46821037	      8.85947814	      1.77984484	    -14.74700449	     14.44122753	     14.44122753	     16.17261920	     -2.62939713	      0.23913915	     39.32408861	     -4.61605583	      6.07538688	     29.94887002	     29.94887002	     10.86966978	    -12.99801677	     12.73478164	    -11.63147922	      1.10614234	      1.94595921	     42.04214768	    -19.63172087	      9.34732378	    104.66237507	     44.83235716	      0.00000000	      0.00000000	     -6.46767976	     -5.04758587	     -9.69325242	     31.24250823	     45.84224920	      0.00000000	      0.00000000
     45.34214286	     -8.79312507	     -3.25639568	      4.93954876	      1.02742562	      0.92166465	      0.46734500	      8.35121515	      1.87506443	    -14.75131227	     14.58557792	     14.58557792	     16.66067677	     -2.66314978	      0.02568547	     38.78446719	     -4.52696857	      5.91785073	     26.75793193	     26.75793193	     11.06812240	    -11.42948180	     12.96261678	    -11.51802323	      1.34562041	      2.14007056	     42.35619719	    -18.86604575	      9.51735451	    105.17413219	     44.81346881	      0.00000000	      0.00000000	     -6.44948825	     -4.96865189	     -9.72136642	     31.26176478	     45.84778903	      0.00000000	      0.00000000
